<svg width="231" height="100" viewBox="0 0 231 100" fill="none" xmlns="http://www.w3.org/2000/svg">
<rect x="2" y="2" width="227" height="96" rx="48" fill="#FF5722" stroke="#060A2F" stroke-width="4"/>
<circle cx="83" cy="50" r="12" fill="white"/>
<path d="M92 19.5C97.1235 19.5 101.962 22.6964 105.592 28.2803C109.212 33.8499 111.5 41.6335 111.5 50.3076C111.5 58.9817 109.212 66.7654 105.592 72.335C101.962 77.9188 97.1235 81.1152 92 81.1152C86.8765 81.1152 82.0377 77.9188 78.4082 72.335C74.7881 66.7654 72.5 58.9817 72.5 50.3076C72.5 41.6335 74.788 33.8499 78.4082 28.2803C82.0377 22.6964 86.8765 19.5 92 19.5Z" stroke="#060A2F" stroke-width="3"/>
<circle cx="135" cy="50" r="12" fill="white"/>
<path d="M144 19.5C149.123 19.5 153.962 22.6964 157.592 28.2803C161.212 33.8499 163.5 41.6335 163.5 50.3076C163.5 58.9817 161.212 66.7654 157.592 72.335C153.962 77.9188 149.123 81.1152 144 81.1152C138.877 81.1152 134.038 77.9188 130.408 72.335C126.788 66.7654 124.5 58.9817 124.5 50.3076C124.5 41.6335 126.788 33.8499 130.408 28.2803C134.038 22.6964 138.877 19.5 144 19.5Z" stroke="#060A2F" stroke-width="3"/>
</svg>
