<svg xmlns="http://www.w3.org/2000/svg" width="232" height="48" viewBox="0 0 232 48" fill="none"><path d="M136.148 6.58025C136.148 6.58025 136.18 6.59399 136.194 6.60316C137.006 7.01553 137.755 5.94795 137.084 5.32939C135.776 4.11977 134.086 3.35001 132.25 2.98804C133.848 3.74405 135.193 4.90785 136.065 6.50236C136.084 6.53901 136.111 6.5665 136.148 6.58025Z" fill="url(#paint0_radial_329_617)"></path><path d="M120.983 23.5333C115.056 14.8414 123.178 7.06593 130.115 6.98804C131.727 6.96971 131.984 4.69709 130.423 4.30763C126.185 3.24921 121.002 4.49091 118.004 7.67075C119.326 5.43478 121.112 3.51496 123.192 1.96628C124.137 1.26525 123.201 -0.182634 122.168 0.390104C109.694 7.30877 107.403 25.9938 123.908 33.5173C133.93 38.0854 146.198 35.5379 156.445 33.2148C166.114 31.0201 175.7 27.2675 185.125 32.2756C179.391 27.8907 173.445 26.2091 164.282 27.8769C154.719 29.6181 130.409 37.3569 120.979 23.5333H120.983Z" fill="url(#paint1_radial_329_617)"></path><path d="M123.444 3.51027C124.505 2.80008 128.123 2.9467 129.78 2.00283C130.597 1.53547 130.726 0.225051 129.78 0.037193C127.682 -0.37976 124.092 2.83215 123.444 3.51486V3.51027Z" fill="url(#paint2_radial_329_617)"></path><path d="M124.395 10.6305C125.359 10.3097 128.113 11.1849 129.587 10.8092C130.317 10.6259 130.693 9.64077 130.005 9.29712C128.481 8.53195 125.037 10.241 124.395 10.6305Z" fill="url(#paint3_radial_329_617)"></path><path d="M156.449 35.918C158.346 35.4873 160.237 34.9971 162.124 34.5251C161.83 35.0704 161.665 35.6385 161.578 36.1517C160.728 36.3625 159.884 36.5641 159.034 36.7565C149.278 38.9696 137.677 41.3843 127.939 37.6592C137.098 40.1242 147.538 37.9387 156.449 35.918Z" fill="#0A2254"></path><path d="M183.027 34.0075C179.166 33.0315 175.282 33.2286 171.38 33.8975C171.265 33.728 171.136 33.5676 170.989 33.421C170.764 33.1965 170.512 32.9995 170.232 32.8345C174.52 32.2389 178.79 32.3168 183.027 34.0075Z" fill="#0A2254"></path><path d="M13.6584 1.43921C12.2949 1.43921 11.3721 2.03944 10.8854 3.2399L0 28.6603H5.97756L8.17209 23.0979H18.7223L20.1364 28.6603H26.0313L18.1485 1.43921H13.6538H13.6584ZM9.97637 18.493L14.5169 6.92374L17.4782 18.493H9.97637Z" fill="#0A2254"></path><path d="M39.685 7.24438C33.106 7.24438 29.5663 10.8091 29.0704 17.934C28.5654 25.1413 31.1135 28.8618 36.7559 29.0634C39.4049 29.0634 41.526 27.9821 43.041 25.7828L42.4442 34.3097C42.3202 36.0691 43.142 36.9534 44.905 36.9534H47.5908L49.0094 16.6968C49.1701 10.3738 46.062 7.24897 39.6804 7.24897L39.685 7.24438ZM43.5736 18.1722C43.1283 22.2547 41.4617 24.2982 38.5739 24.2982C35.6862 24.2982 34.3823 22.2547 34.5476 18.1722C34.846 13.8881 36.4804 11.7667 39.5289 11.7667C42.5773 11.7667 43.9133 13.8881 43.5736 18.1722Z" fill="#0A2254"></path><path d="M64.5501 10.1265L63.7697 21.2972C63.6044 23.6568 62.3189 24.8206 59.9132 24.8206C57.5075 24.8206 56.3826 23.6614 56.5479 21.2972L57.512 7.4873H52.1772L51.2866 20.2158C51.0387 23.7805 51.7962 26.099 53.5591 27.2628C55.3221 28.4632 57.2458 29.0635 59.4495 29.0635C61.6532 29.0635 63.8615 28.5045 65.8219 27.4232C67.7868 26.2639 68.8795 23.8584 69.132 20.2158L70.0227 7.4873H67.2956C65.5326 7.4873 64.6282 8.36703 64.5455 10.1311L64.5501 10.1265Z" fill="#0A2254"></path><path d="M80.844 7.16205C75.9499 7.16205 73.0483 9.08187 72.1301 13.0086H77.4649C77.8139 12.0097 78.8928 11.5286 80.7797 11.5286C82.988 11.5286 84.0669 12.1288 84.1036 13.3293C84.021 14.4885 82.8135 15.1712 80.5042 15.4507C75.0914 15.973 71.3083 17.3339 70.8309 22.4152C70.5049 27.0979 73.8656 29.4622 78.9892 29.059C84.7556 28.6603 88.4651 26.0578 88.8737 20.2113L89.3787 13.004C89.5348 9.08187 86.6976 7.15747 80.844 7.15747V7.16205ZM83.718 19.973C83.5068 22.9742 81.5785 24.7382 78.6127 24.7382C76.9278 24.7382 76.1014 23.9364 76.0968 22.2548C76.207 20.6924 77.3594 19.6936 79.5126 19.2903C81.1011 18.9696 82.5748 18.5297 83.8557 18.0074L83.718 19.9685V19.973Z" fill="#0A2254"></path><path d="M98.703 4.11962C98.7994 2.71756 97.7251 1.43921 96.3248 1.43921H93.5564L91.9358 24.5778C91.7292 26.9375 92.6061 28.1792 94.5986 28.3808C96.5911 28.5824 98.4734 28.5824 100.213 28.422L100.498 24.3808H98.8545C97.8123 24.3808 97.3257 23.8997 97.3854 23.02L98.2072 11.2903H98.7673C100.25 11.2903 101.494 10.1677 101.6 8.64654L101.683 7.48732H98.4734L98.7076 4.1242L98.703 4.11962Z" fill="#0A2254"></path><path d="M107.491 7.48267H104.722L103.239 28.6602H108.574L109.878 10.0439C109.997 8.32115 109.217 7.48267 107.491 7.48267Z" fill="#0A2254"></path><path d="M107.918 1.43921H105.149L104.86 5.60416H110.195L110.305 4.04173C110.466 2.31893 109.685 1.43921 107.918 1.43921Z" fill="#0A2254"></path><path d="M194.27 7.16211C187.852 7.16211 184.39 10.8047 183.872 18.1724C183.362 25.4576 186.314 29.1415 192.732 29.1415C199.151 29.1415 202.658 25.4576 203.168 18.1724C203.682 10.8047 200.689 7.16211 194.27 7.16211ZM197.604 18.0121C197.268 22.2137 195.753 24.3763 193.026 24.3763C190.299 24.3763 189.041 22.2961 189.289 18.1724C189.583 13.9708 191.135 11.8494 193.944 11.8494C196.754 11.8494 197.893 13.8929 197.604 18.0121Z" fill="#0A2254"></path><path d="M209.674 1.43921H206.905L205 28.6603H210.335L212.056 4.04173C212.153 2.63967 211.074 1.43921 209.669 1.43921H209.674Z" fill="#0A2254"></path><path d="M230.765 18.1722C229.677 17.0909 227.377 16.1699 223.814 15.4506C221.082 14.9282 219.779 14.0898 219.852 13.0084C219.925 11.9271 221.009 11.3681 223.093 11.3681C224.856 11.3681 225.903 11.8904 226.201 12.8114C226.463 13.6499 227.234 14.0943 228.474 14.131H231.844C231.876 11.9271 231.155 10.2089 229.677 8.96719C228.157 7.76673 226.032 7.1665 223.304 7.1665C218.447 7.2444 214.682 9.40705 214.366 13.9706C214.173 17.2925 216.436 19.3727 221.069 20.2158C224.673 20.8572 226.459 21.737 226.38 22.8183C226.284 24.1791 225.118 24.8206 222.873 24.8206C220.265 24.8206 218.635 24.0187 218.677 21.7003H213.223C213.053 24.1424 213.723 25.9844 215.247 27.1848C216.606 28.4265 218.805 29.068 221.776 29.068C227.391 29.068 231.619 27.1482 231.982 21.9431C232.083 20.4998 231.692 19.2215 230.76 18.1814L230.765 18.1722Z" fill="#0A2254"></path><path d="M152.235 1.43921H142.97C141.405 1.43921 140.069 2.80003 139.959 4.36246L138.223 30.0028C138.815 30.0303 139.421 30.044 140.041 30.044C141.285 30.044 142.543 29.989 143.797 29.8974L144.508 18.9696H151.409C156.863 18.9696 160.031 15.5652 160.407 10.2044C160.807 4.51825 158.011 1.43921 152.235 1.43921ZM154.838 10.1265C154.655 12.7703 153.158 14.0898 150.353 14.0486H144.94L145.491 6.16315H151.188C153.796 6.16315 155.026 7.48274 154.843 10.1265H154.838Z" fill="#0A2254"></path><path d="M172.573 7.16211C166.155 7.16211 162.693 10.8047 162.175 18.1724C161.922 21.7875 162.524 24.5138 163.974 26.3465C163.984 26.3465 163.993 26.3465 164.002 26.3419C166.435 25.8975 168.634 25.6822 170.719 25.6822C173.354 25.6822 175.773 26.0304 178.087 26.7589C180.061 24.9353 181.191 22.0716 181.466 18.1724C181.981 10.8047 178.987 7.16211 172.569 7.16211H172.573ZM175.907 18.0121C175.571 22.2137 174.056 24.3763 171.329 24.3763C168.602 24.3763 167.344 22.2961 167.592 18.1724C167.886 13.9708 169.438 11.8494 172.247 11.8494C175.057 11.8494 176.196 13.8929 175.907 18.0121Z" fill="#0A2254"></path><g style="mix-blend-mode:screen"><path d="M17.4966 2.30518H13.6584C12.6438 2.30518 12.0378 2.69006 11.6797 3.58353L2.82812 24.2525C4.13658 23.8355 5.61949 23.4094 7.28145 22.997L7.57987 22.2319H10.5732C13.9614 21.5079 17.9648 20.8161 22.6845 20.2296L17.4966 2.30518ZM8.70927 19.3544L14.6914 4.11044L18.5938 19.3544H8.70927Z" fill="url(#paint4_linear_329_617)"></path><path d="M46.2136 10.2271C44.8363 8.82049 42.6418 8.10571 39.6851 8.10571C33.5836 8.10571 30.3928 11.336 29.9337 17.9889C29.897 18.502 29.8832 18.9969 29.874 19.4688C31.1044 19.3589 32.367 19.2626 33.6708 19.171C33.6662 18.8319 33.6662 18.4791 33.6846 18.1126C34.0198 13.3245 35.9893 10.9007 39.529 10.9007C41.0349 10.9007 42.2286 11.3634 43.0733 12.2752C44.2119 13.5032 44.6526 15.4551 44.4369 18.2638C44.4231 18.3829 44.4093 18.5066 44.391 18.6258C45.5754 18.5845 46.7783 18.557 48.0133 18.5295L48.1464 16.6647C48.2199 13.7873 47.568 11.6154 46.2136 10.2271Z" fill="url(#paint5_linear_329_617)"></path><path d="M52.9856 8.34399H56.585L55.8826 18.4563C54.6614 18.4563 53.4585 18.4608 52.2832 18.4746L52.9856 8.34399Z" fill="url(#paint6_linear_329_617)"></path><path d="M69.1046 8.34399L68.3884 18.5479C67.2268 18.5479 66.0377 18.5433 64.8257 18.5296L65.4133 10.1859C65.4776 8.85717 66.001 8.34399 67.3003 8.34399H69.1H69.1046Z" fill="url(#paint7_linear_329_617)"></path><path d="M87.4965 9.84685C86.335 8.63722 84.0992 8.02783 80.8441 8.02783C76.8453 8.02783 74.3615 9.37491 73.2964 12.147H76.9325C77.892 10.6624 80.0269 10.6624 80.7798 10.6624C84.1726 10.6624 84.9301 12.1011 84.9715 13.3062V13.3932C84.797 15.7987 81.6475 16.1882 80.5916 16.3119C77.1345 16.6464 74.8619 17.3245 73.4754 18.5525C75.4129 18.5387 77.286 18.525 79.0719 18.5021C79.1592 18.4837 79.251 18.4654 79.3428 18.4517C80.8625 18.1447 82.2673 17.7323 83.5253 17.2191L84.8108 16.6968L84.696 18.4013C85.8805 18.3738 87.0282 18.3417 88.1347 18.305L88.5112 12.9854C88.5708 11.643 88.2357 10.6258 87.4965 9.85601V9.84685Z" fill="url(#paint8_linear_329_617)"></path><path d="M100.751 8.34412L100.732 8.58696C100.659 9.63164 99.8095 10.4243 98.7627 10.4243H97.39L96.8666 17.9249C95.7142 17.989 94.5114 18.0532 93.2534 18.1082L94.3599 2.30518H96.3202C96.7197 2.30518 97.0915 2.47012 97.3808 2.77711C97.6976 3.12075 97.8674 3.58811 97.8307 4.06004L97.5369 8.34412H100.746H100.751Z" fill="url(#paint9_linear_329_617)"></path><path d="M109.015 9.98431L108.524 16.9946C107.403 17.1138 106.196 17.2375 104.901 17.352L105.53 8.34399H107.491C108.097 8.34399 108.519 8.46312 108.744 8.70596C108.969 8.94422 109.061 9.37492 109.015 9.98431Z" fill="url(#paint10_linear_329_617)"></path><path d="M105.783 4.73811L105.953 2.30054H107.913C108.34 2.30054 108.905 2.36468 109.185 2.67167C109.41 2.91451 109.492 3.34979 109.437 3.95919L109.382 4.73811H105.783Z" fill="url(#paint11_linear_329_617)"></path><path d="M200.386 10.1493C199.068 8.74261 197.012 8.02783 194.271 8.02783C188.339 8.02783 185.217 11.3635 184.74 18.2317C184.671 19.2489 184.671 20.1882 184.74 21.0542C186.021 20.9854 187.278 20.9121 188.509 20.8342C188.394 20.0416 188.367 19.1344 188.426 18.108C188.844 12.2157 191.658 10.9786 193.949 10.9786C195.276 10.9786 196.35 11.4001 197.122 12.2294C198.219 13.4024 198.664 15.3176 198.467 18.0759C198.407 18.8182 198.311 19.4917 198.191 20.0966C199.541 19.9774 200.85 19.8491 202.131 19.7163C202.204 19.2031 202.264 18.667 202.305 18.108C202.567 14.4562 201.919 11.7804 200.391 10.1447L200.386 10.1493Z" fill="url(#paint12_linear_329_617)"></path><path d="M211.198 3.97757L210.16 18.8092C208.99 18.9604 207.778 19.1024 206.529 19.249L207.713 2.30518H209.674C210.096 2.30518 210.486 2.47012 210.776 2.78169C211.083 3.10243 211.225 3.52854 211.198 3.97757Z" fill="url(#paint13_linear_329_617)"></path><path d="M230.953 13.265H228.479C227.244 13.2238 227.088 12.7335 227.032 12.5502C226.734 11.6109 225.811 10.5067 223.098 10.5067C219.847 10.5067 219.072 11.8309 218.994 12.9489C218.879 14.5617 220.449 15.6888 223.658 16.3028C224.057 16.3853 224.439 16.4632 224.787 16.5502C222.542 16.9718 219.967 17.407 217.079 17.8469C215.1 16.4723 215.197 14.745 215.238 14.021C215.605 8.72892 221.018 8.06454 223.327 8.03247C225.825 8.03247 227.795 8.57313 229.149 9.6453C230.219 10.5434 230.816 11.7346 230.953 13.2696V13.265Z" fill="url(#paint14_linear_329_617)"></path><path d="M157.983 4.25707C156.771 2.96039 154.838 2.30518 152.235 2.30518H142.966C141.882 2.30518 140.9 3.27196 140.817 4.41743L139.71 20.839C140.909 20.6145 142.19 20.4724 143.549 20.3762L143.7 18.1082H151.408C156.22 18.1082 159.186 15.2078 159.539 10.1494C159.723 7.54229 159.199 5.56291 157.983 4.25707ZM155.701 10.186C155.485 13.233 153.635 14.91 150.476 14.91H144.008L144.683 5.29716H151.188C152.731 5.29716 153.906 5.71869 154.686 6.5526C155.472 7.39567 155.811 8.61445 155.701 10.186Z" fill="url(#paint15_linear_329_617)"></path><path d="M180.608 18.1128C180.534 19.2537 180.369 20.3029 180.14 21.2514C178.79 21.2972 177.463 21.3155 176.164 21.3201C176.458 20.4404 176.664 19.3682 176.77 18.0761C176.958 15.3178 176.522 13.4072 175.425 12.2296C174.644 11.4003 173.579 10.9788 172.243 10.9788C169.952 10.9788 167.142 12.2159 166.725 18.1082C166.656 19.2583 166.697 20.2754 166.853 21.1368C165.549 21.091 164.273 21.0269 163.033 20.9627C162.964 20.1197 162.969 19.2124 163.038 18.2273C163.515 11.3545 166.637 8.02344 172.569 8.02344C175.31 8.02344 177.371 8.73821 178.68 10.1449C180.208 11.7806 180.856 14.4564 180.603 18.1082L180.608 18.1128Z" fill="url(#paint16_linear_329_617)"></path></g><path style="mix-blend-mode:multiply" d="M130.602 5.68198C130.583 5.81486 130.505 6.11268 130.106 6.12184C125.735 6.16766 121.264 8.92597 119.23 12.8206C118.674 13.8744 118.325 14.9741 118.169 16.0921C116.397 16.1379 114.662 16.2433 113.055 16.3761C113.243 10.1906 116.893 4.31199 122.595 1.14132C122.632 1.12299 122.645 1.11841 122.645 1.11841C122.682 1.13215 122.728 1.20088 122.719 1.23296C122.719 1.23296 122.705 1.25128 122.673 1.27419C120.433 2.93742 118.614 4.9443 117.26 7.23066C117.035 7.61096 117.132 8.09664 117.485 8.35781C117.641 8.47236 117.825 8.53192 118.004 8.53192C118.233 8.53192 118.468 8.44029 118.637 8.26159C120.68 6.09435 123.931 4.80226 127.328 4.80226C128.325 4.80226 129.302 4.9168 130.211 5.1459C130.602 5.24212 130.611 5.56285 130.597 5.68656L130.602 5.68198Z" fill="url(#paint17_linear_329_617)"></path><path d="M168.841 41.4942C168.877 40.9535 168.574 40.5915 167.9 40.3945C167.257 40.1975 166.513 40.0005 165.723 39.7851C163.575 39.2261 162.56 38.209 162.666 36.7336C162.882 34.3877 164.36 33.2376 167.119 33.2513C169.75 33.2513 171.035 34.4014 171.003 36.7153H169.722C169.245 36.7153 168.933 36.4862 168.749 36.06C168.414 35.4186 167.762 35.107 166.793 35.107C165.609 35.1253 164.984 35.5652 164.874 36.422C164.824 37.1276 165.498 37.6362 166.935 37.9661C167.762 38.1631 168.63 38.4106 169.548 38.7359C170.769 39.162 171.297 40.083 171.132 41.4942C170.847 43.6752 169.291 44.7611 166.463 44.7611C163.634 44.7611 162.092 43.5285 162.197 41.1001H164.42C164.42 42.2823 165.136 42.8733 166.596 42.8733C168.056 42.8733 168.799 42.4151 168.845 41.4942H168.841Z" fill="url(#paint18_radial_329_617)"></path><path d="M180.172 40.2937C179.961 43.2811 178.524 44.7931 175.893 44.7931C173.262 44.7931 172.05 43.2811 172.261 40.2937C172.472 37.2742 173.891 35.7805 176.522 35.7805C179.152 35.7805 180.378 37.2742 180.167 40.2937H180.172ZM174.483 40.2937C174.382 41.9844 174.897 42.8366 176.017 42.8366C177.137 42.8366 177.757 41.9523 177.895 40.225C178.014 38.5342 177.513 37.6958 176.393 37.6958C175.273 37.6958 174.607 38.5663 174.483 40.2891V40.2937Z" fill="url(#paint19_radial_329_617)"></path><path d="M188.481 41.1321C188.376 42.6258 187.93 43.6109 187.122 44.0874C186.319 44.5319 185.447 44.761 184.51 44.761C183.574 44.761 182.816 44.5136 182.095 44.0233C181.37 43.5468 181.062 42.5937 181.163 41.1321L181.531 35.9133H183.716L183.321 41.5766C183.252 42.5433 183.711 43.0199 184.698 43.0199C185.685 43.0199 186.213 42.5433 186.278 41.5766L186.599 36.9947C186.631 36.2707 187.003 35.9133 187.728 35.9133H188.849L188.481 41.1321Z" fill="url(#paint20_radial_329_617)"></path><path d="M192.113 37.4712H191.883L191.548 42.2822C191.52 42.6442 191.723 42.8412 192.149 42.8412H192.824L192.71 44.4999C191.998 44.564 191.227 44.564 190.409 44.4815C189.592 44.3991 189.234 43.8905 189.317 42.9237L189.982 33.4346H191.116C191.69 33.4346 192.131 33.9615 192.09 34.5342L191.993 35.9134H193.311L193.279 36.3899C193.233 37.013 192.728 37.4712 192.117 37.4712H192.113Z" fill="url(#paint21_radial_329_617)"></path><path d="M198.145 37.7324C196.846 37.7324 196.213 38.8137 196.116 40.1471L195.804 44.5961H193.619L194.399 33.4346H195.501C196.226 33.4346 196.562 33.8103 196.511 34.5342L196.327 37.1276C197.535 35.8492 198.926 35.4873 200.514 36.06C201.699 36.5044 202.195 37.6682 201.997 39.556L201.644 44.5961H199.472L199.784 40.1471C199.885 38.6854 199.394 37.7324 198.145 37.7324Z" fill="url(#paint22_radial_329_617)"></path><path d="M209.949 44.596H204.867L205.565 34.6304C205.61 33.9889 206.157 33.4299 206.8 33.4299H210.913C213.02 33.4299 214.356 34.2684 214.219 36.2524C214.136 37.4345 213.608 38.1401 212.708 38.5662C213.783 38.9924 214.37 39.7163 214.269 41.1917C214.108 43.5055 212.368 44.5914 209.954 44.5914L209.949 44.596ZM210.096 39.6567H207.465L207.259 42.58H209.921C211.055 42.58 211.772 42.2501 211.85 41.1367C211.928 39.9866 211.28 39.6613 210.096 39.6613V39.6567ZM210.298 35.3727H207.764L207.594 37.769H210.16C211.065 37.769 211.822 37.4895 211.891 36.5548C211.955 35.6201 211.331 35.3727 210.298 35.3727Z" fill="url(#paint23_radial_329_617)"></path><path d="M217.782 38.1769H215.596C215.973 36.5686 217.162 35.7805 219.168 35.7805C221.569 35.7805 222.731 36.5686 222.667 38.1769L222.46 41.1322C222.29 43.5285 220.77 44.5961 218.406 44.761C216.308 44.926 214.926 43.9546 215.059 42.0348C215.257 39.95 216.808 39.3911 219.026 39.1803C219.972 39.0657 220.467 38.7862 220.5 38.3097C220.486 37.8195 220.04 37.572 219.136 37.572C218.365 37.572 217.919 37.7691 217.777 38.1814L217.782 38.1769ZM220.343 41.036L220.399 40.2295C219.875 40.4449 219.269 40.6236 218.617 40.7565C217.736 40.9214 217.263 41.3292 217.217 41.9707C217.217 42.658 217.557 42.9879 218.245 42.9879C219.462 42.9879 220.252 42.2639 220.339 41.036H220.343Z" fill="url(#paint24_radial_329_617)"></path><path d="M224.672 46.1401C225.871 46.1401 226.344 45.5491 226.077 44.399L223.713 35.9133H226.197L227.501 41.9385L229.383 36.6877C229.548 36.1791 229.915 35.9179 230.471 35.9179H232L227.849 46.0806C227.225 47.5101 226.66 48.0004 224.851 48.0004C224.291 48.0004 223.998 47.9821 223.933 47.9362L224.057 46.1493H224.668L224.672 46.1401Z" fill="url(#paint25_radial_329_617)"></path><defs><radialGradient id="paint0_radial_329_617" cx="0" cy="0" r="1" gradientUnits="userSpaceOnUse" gradientTransform="translate(112.389 6.31908) scale(71.1935 71.0515)"><stop stop-color="#87CEEB"></stop><stop offset="1" stop-color="#1E90FF"></stop></radialGradient><radialGradient id="paint1_radial_329_617" cx="0" cy="0" r="1" gradientUnits="userSpaceOnUse" gradientTransform="translate(112.389 6.31908) scale(71.1936 71.0515)"><stop stop-color="#87CEEB"></stop><stop offset="1" stop-color="#1E90FF"></stop></radialGradient><radialGradient id="paint2_radial_329_617" cx="0" cy="0" r="1" gradientUnits="userSpaceOnUse" gradientTransform="translate(112.389 6.31898) scale(71.1935 71.0515)"><stop stop-color="#87CEEB"></stop><stop offset="1" stop-color="#1E90FF"></stop></radialGradient><radialGradient id="paint3_radial_329_617" cx="0" cy="0" r="1" gradientUnits="userSpaceOnUse" gradientTransform="translate(112.389 6.31889) scale(71.1936 71.0516)"><stop stop-color="#87CEEB"></stop><stop offset="1" stop-color="#1E90FF"></stop></radialGradient><linearGradient id="paint4_linear_329_617" x1="12.7081" y1="34.2502" x2="12.9001" y2="-12.2057" gradientUnits="userSpaceOnUse"><stop stop-color="#87CEEB"></stop><stop offset="0.02" stop-color="#87CEEB" stop-opacity="0.95"></stop><stop offset="0.08" stop-color="#87CEEB" stop-opacity="0.75"></stop><stop offset="0.15" stop-color="#87CEEB" stop-opacity="0.57"></stop><stop offset="0.22" stop-color="#87CEEB" stop-opacity="0.42"></stop><stop offset="0.3" stop-color="#87CEEB" stop-opacity="0.29"></stop><stop offset="0.38" stop-color="#87CEEB" stop-opacity="0.18"></stop><stop offset="0.48" stop-color="#87CEEB" stop-opacity="0.1"></stop><stop offset="0.59" stop-color="#87CEEB" stop-opacity="0.04"></stop><stop offset="0.73" stop-color="#87CEEB" stop-opacity="0"></stop><stop offset="1" stop-color="#87CEEB" stop-opacity="0"></stop></linearGradient><linearGradient id="paint5_linear_329_617" x1="38.946" y1="34.36" x2="39.138" y2="-12.0959" gradientUnits="userSpaceOnUse"><stop stop-color="#87CEEB"></stop><stop offset="0.02" stop-color="#87CEEB" stop-opacity="0.95"></stop><stop offset="0.08" stop-color="#87CEEB" stop-opacity="0.75"></stop><stop offset="0.15" stop-color="#87CEEB" stop-opacity="0.57"></stop><stop offset="0.22" stop-color="#87CEEB" stop-opacity="0.42"></stop><stop offset="0.3" stop-color="#87CEEB" stop-opacity="0.29"></stop><stop offset="0.38" stop-color="#87CEEB" stop-opacity="0.18"></stop><stop offset="0.48" stop-color="#87CEEB" stop-opacity="0.1"></stop><stop offset="0.59" stop-color="#87CEEB" stop-opacity="0.04"></stop><stop offset="0.73" stop-color="#87CEEB" stop-opacity="0"></stop><stop offset="1" stop-color="#87CEEB" stop-opacity="0"></stop></linearGradient><linearGradient id="paint6_linear_329_617" x1="54.3492" y1="34.4242" x2="54.5412" y2="-12.0363" gradientUnits="userSpaceOnUse"><stop stop-color="#87CEEB"></stop><stop offset="0.02" stop-color="#87CEEB" stop-opacity="0.95"></stop><stop offset="0.08" stop-color="#87CEEB" stop-opacity="0.75"></stop><stop offset="0.15" stop-color="#87CEEB" stop-opacity="0.57"></stop><stop offset="0.22" stop-color="#87CEEB" stop-opacity="0.42"></stop><stop offset="0.3" stop-color="#87CEEB" stop-opacity="0.29"></stop><stop offset="0.38" stop-color="#87CEEB" stop-opacity="0.18"></stop><stop offset="0.48" stop-color="#87CEEB" stop-opacity="0.1"></stop><stop offset="0.59" stop-color="#87CEEB" stop-opacity="0.04"></stop><stop offset="0.73" stop-color="#87CEEB" stop-opacity="0"></stop><stop offset="1" stop-color="#87CEEB" stop-opacity="0"></stop></linearGradient><linearGradient id="paint7_linear_329_617" x1="66.8779" y1="34.4746" x2="67.0699" y2="-11.9813" gradientUnits="userSpaceOnUse"><stop stop-color="#87CEEB"></stop><stop offset="0.02" stop-color="#87CEEB" stop-opacity="0.95"></stop><stop offset="0.08" stop-color="#87CEEB" stop-opacity="0.75"></stop><stop offset="0.15" stop-color="#87CEEB" stop-opacity="0.57"></stop><stop offset="0.22" stop-color="#87CEEB" stop-opacity="0.42"></stop><stop offset="0.3" stop-color="#87CEEB" stop-opacity="0.29"></stop><stop offset="0.38" stop-color="#87CEEB" stop-opacity="0.18"></stop><stop offset="0.48" stop-color="#87CEEB" stop-opacity="0.1"></stop><stop offset="0.59" stop-color="#87CEEB" stop-opacity="0.04"></stop><stop offset="0.73" stop-color="#87CEEB" stop-opacity="0"></stop><stop offset="1" stop-color="#87CEEB" stop-opacity="0"></stop></linearGradient><linearGradient id="paint8_linear_329_617" x1="80.8165" y1="34.5341" x2="81.004" y2="-11.9264" gradientUnits="userSpaceOnUse"><stop stop-color="#87CEEB"></stop><stop offset="0.02" stop-color="#87CEEB" stop-opacity="0.95"></stop><stop offset="0.08" stop-color="#87CEEB" stop-opacity="0.75"></stop><stop offset="0.15" stop-color="#87CEEB" stop-opacity="0.57"></stop><stop offset="0.22" stop-color="#87CEEB" stop-opacity="0.42"></stop><stop offset="0.3" stop-color="#87CEEB" stop-opacity="0.29"></stop><stop offset="0.38" stop-color="#87CEEB" stop-opacity="0.18"></stop><stop offset="0.48" stop-color="#87CEEB" stop-opacity="0.1"></stop><stop offset="0.59" stop-color="#87CEEB" stop-opacity="0.04"></stop><stop offset="0.73" stop-color="#87CEEB" stop-opacity="0"></stop><stop offset="1" stop-color="#87CEEB" stop-opacity="0"></stop></linearGradient><linearGradient id="paint9_linear_329_617" x1="96.9125" y1="34.5984" x2="97.1045" y2="-11.8575" gradientUnits="userSpaceOnUse"><stop stop-color="#87CEEB"></stop><stop offset="0.02" stop-color="#87CEEB" stop-opacity="0.95"></stop><stop offset="0.08" stop-color="#87CEEB" stop-opacity="0.75"></stop><stop offset="0.15" stop-color="#87CEEB" stop-opacity="0.57"></stop><stop offset="0.22" stop-color="#87CEEB" stop-opacity="0.42"></stop><stop offset="0.3" stop-color="#87CEEB" stop-opacity="0.29"></stop><stop offset="0.38" stop-color="#87CEEB" stop-opacity="0.18"></stop><stop offset="0.48" stop-color="#87CEEB" stop-opacity="0.1"></stop><stop offset="0.59" stop-color="#87CEEB" stop-opacity="0.04"></stop><stop offset="0.73" stop-color="#87CEEB" stop-opacity="0"></stop><stop offset="1" stop-color="#87CEEB" stop-opacity="0"></stop></linearGradient><linearGradient id="paint10_linear_329_617" x1="106.876" y1="34.6395" x2="107.068" y2="-11.8164" gradientUnits="userSpaceOnUse"><stop stop-color="#87CEEB"></stop><stop offset="0.02" stop-color="#87CEEB" stop-opacity="0.95"></stop><stop offset="0.08" stop-color="#87CEEB" stop-opacity="0.75"></stop><stop offset="0.15" stop-color="#87CEEB" stop-opacity="0.57"></stop><stop offset="0.22" stop-color="#87CEEB" stop-opacity="0.42"></stop><stop offset="0.3" stop-color="#87CEEB" stop-opacity="0.29"></stop><stop offset="0.38" stop-color="#87CEEB" stop-opacity="0.18"></stop><stop offset="0.48" stop-color="#87CEEB" stop-opacity="0.1"></stop><stop offset="0.59" stop-color="#87CEEB" stop-opacity="0.04"></stop><stop offset="0.73" stop-color="#87CEEB" stop-opacity="0"></stop><stop offset="1" stop-color="#87CEEB" stop-opacity="0"></stop></linearGradient><linearGradient id="paint11_linear_329_617" x1="107.495" y1="34.6442" x2="107.687" y2="-11.8163" gradientUnits="userSpaceOnUse"><stop stop-color="#87CEEB"></stop><stop offset="0.02" stop-color="#87CEEB" stop-opacity="0.95"></stop><stop offset="0.08" stop-color="#87CEEB" stop-opacity="0.75"></stop><stop offset="0.15" stop-color="#87CEEB" stop-opacity="0.57"></stop><stop offset="0.22" stop-color="#87CEEB" stop-opacity="0.42"></stop><stop offset="0.3" stop-color="#87CEEB" stop-opacity="0.29"></stop><stop offset="0.38" stop-color="#87CEEB" stop-opacity="0.18"></stop><stop offset="0.48" stop-color="#87CEEB" stop-opacity="0.1"></stop><stop offset="0.59" stop-color="#87CEEB" stop-opacity="0.04"></stop><stop offset="0.73" stop-color="#87CEEB" stop-opacity="0"></stop><stop offset="1" stop-color="#87CEEB" stop-opacity="0"></stop></linearGradient><linearGradient id="paint12_linear_329_617" x1="193.453" y1="34.9969" x2="193.646" y2="-11.459" gradientUnits="userSpaceOnUse"><stop stop-color="#87CEEB"></stop><stop offset="0.02" stop-color="#87CEEB" stop-opacity="0.95"></stop><stop offset="0.08" stop-color="#87CEEB" stop-opacity="0.75"></stop><stop offset="0.15" stop-color="#87CEEB" stop-opacity="0.57"></stop><stop offset="0.22" stop-color="#87CEEB" stop-opacity="0.42"></stop><stop offset="0.3" stop-color="#87CEEB" stop-opacity="0.29"></stop><stop offset="0.38" stop-color="#87CEEB" stop-opacity="0.18"></stop><stop offset="0.48" stop-color="#87CEEB" stop-opacity="0.1"></stop><stop offset="0.59" stop-color="#87CEEB" stop-opacity="0.04"></stop><stop offset="0.73" stop-color="#87CEEB" stop-opacity="0"></stop><stop offset="1" stop-color="#87CEEB" stop-opacity="0"></stop></linearGradient><linearGradient id="paint13_linear_329_617" x1="208.765" y1="35.0612" x2="208.957" y2="-11.3993" gradientUnits="userSpaceOnUse"><stop stop-color="#87CEEB"></stop><stop offset="0.02" stop-color="#87CEEB" stop-opacity="0.95"></stop><stop offset="0.08" stop-color="#87CEEB" stop-opacity="0.75"></stop><stop offset="0.15" stop-color="#87CEEB" stop-opacity="0.57"></stop><stop offset="0.22" stop-color="#87CEEB" stop-opacity="0.42"></stop><stop offset="0.3" stop-color="#87CEEB" stop-opacity="0.29"></stop><stop offset="0.38" stop-color="#87CEEB" stop-opacity="0.18"></stop><stop offset="0.48" stop-color="#87CEEB" stop-opacity="0.1"></stop><stop offset="0.59" stop-color="#87CEEB" stop-opacity="0.04"></stop><stop offset="0.73" stop-color="#87CEEB" stop-opacity="0"></stop><stop offset="1" stop-color="#87CEEB" stop-opacity="0"></stop></linearGradient><linearGradient id="paint14_linear_329_617" x1="223.002" y1="35.1207" x2="223.194" y2="-11.3398" gradientUnits="userSpaceOnUse"><stop stop-color="#87CEEB"></stop><stop offset="0.02" stop-color="#87CEEB" stop-opacity="0.95"></stop><stop offset="0.08" stop-color="#87CEEB" stop-opacity="0.75"></stop><stop offset="0.15" stop-color="#87CEEB" stop-opacity="0.57"></stop><stop offset="0.22" stop-color="#87CEEB" stop-opacity="0.42"></stop><stop offset="0.3" stop-color="#87CEEB" stop-opacity="0.29"></stop><stop offset="0.38" stop-color="#87CEEB" stop-opacity="0.18"></stop><stop offset="0.48" stop-color="#87CEEB" stop-opacity="0.1"></stop><stop offset="0.59" stop-color="#87CEEB" stop-opacity="0.04"></stop><stop offset="0.73" stop-color="#87CEEB" stop-opacity="0"></stop><stop offset="1" stop-color="#87CEEB" stop-opacity="0"></stop></linearGradient><linearGradient id="paint15_linear_329_617" x1="149.563" y1="34.8183" x2="149.755" y2="-11.6421" gradientUnits="userSpaceOnUse"><stop stop-color="#87CEEB"></stop><stop offset="0.02" stop-color="#87CEEB" stop-opacity="0.95"></stop><stop offset="0.08" stop-color="#87CEEB" stop-opacity="0.75"></stop><stop offset="0.15" stop-color="#87CEEB" stop-opacity="0.57"></stop><stop offset="0.22" stop-color="#87CEEB" stop-opacity="0.42"></stop><stop offset="0.3" stop-color="#87CEEB" stop-opacity="0.29"></stop><stop offset="0.38" stop-color="#87CEEB" stop-opacity="0.18"></stop><stop offset="0.48" stop-color="#87CEEB" stop-opacity="0.1"></stop><stop offset="0.59" stop-color="#87CEEB" stop-opacity="0.04"></stop><stop offset="0.73" stop-color="#87CEEB" stop-opacity="0"></stop><stop offset="1" stop-color="#87CEEB" stop-opacity="0"></stop></linearGradient><linearGradient id="paint16_linear_329_617" x1="171.752" y1="34.9055" x2="171.944" y2="-11.5504" gradientUnits="userSpaceOnUse"><stop stop-color="#87CEEB"></stop><stop offset="0.02" stop-color="#87CEEB" stop-opacity="0.95"></stop><stop offset="0.08" stop-color="#87CEEB" stop-opacity="0.75"></stop><stop offset="0.15" stop-color="#87CEEB" stop-opacity="0.57"></stop><stop offset="0.22" stop-color="#87CEEB" stop-opacity="0.42"></stop><stop offset="0.3" stop-color="#87CEEB" stop-opacity="0.29"></stop><stop offset="0.38" stop-color="#87CEEB" stop-opacity="0.18"></stop><stop offset="0.48" stop-color="#87CEEB" stop-opacity="0.1"></stop><stop offset="0.59" stop-color="#87CEEB" stop-opacity="0.04"></stop><stop offset="0.73" stop-color="#87CEEB" stop-opacity="0"></stop><stop offset="1" stop-color="#87CEEB" stop-opacity="0"></stop></linearGradient><linearGradient id="paint17_linear_329_617" x1="120.639" y1="19.895" x2="122.843" y2="2.80801" gradientUnits="userSpaceOnUse"><stop stop-color="#0A2254"></stop><stop offset="0.07" stop-color="#0A2254" stop-opacity="0.75"></stop><stop offset="0.17" stop-color="#0A2254" stop-opacity="0.48"></stop><stop offset="0.28" stop-color="#0A2254" stop-opacity="0.26"></stop><stop offset="0.41" stop-color="#0A2254" stop-opacity="0.11"></stop><stop offset="0.59" stop-color="#0A2254" stop-opacity="0.02"></stop><stop offset="1" stop-color="#0A2254" stop-opacity="0"></stop></linearGradient><radialGradient id="paint18_radial_329_617" cx="0" cy="0" r="1" gradientUnits="userSpaceOnUse" gradientTransform="translate(157.763 45.123) scale(73.7507 73.6036)"><stop stop-color="#87CEEB"></stop><stop offset="1" stop-color="#1E90FF"></stop></radialGradient><radialGradient id="paint19_radial_329_617" cx="0" cy="0" r="1" gradientUnits="userSpaceOnUse" gradientTransform="translate(157.763 45.123) scale(73.7508 73.6037)"><stop stop-color="#87CEEB"></stop><stop offset="1" stop-color="#1E90FF"></stop></radialGradient><radialGradient id="paint20_radial_329_617" cx="0" cy="0" r="1" gradientUnits="userSpaceOnUse" gradientTransform="translate(157.763 45.123) scale(73.7507 73.6037)"><stop stop-color="#87CEEB"></stop><stop offset="1" stop-color="#1E90FF"></stop></radialGradient><radialGradient id="paint21_radial_329_617" cx="0" cy="0" r="1" gradientUnits="userSpaceOnUse" gradientTransform="translate(157.762 45.123) scale(73.7509 73.6036)"><stop stop-color="#87CEEB"></stop><stop offset="1" stop-color="#1E90FF"></stop></radialGradient><radialGradient id="paint22_radial_329_617" cx="0" cy="0" r="1" gradientUnits="userSpaceOnUse" gradientTransform="translate(157.762 45.123) scale(73.7508 73.6036)"><stop stop-color="#87CEEB"></stop><stop offset="1" stop-color="#1E90FF"></stop></radialGradient><radialGradient id="paint23_radial_329_617" cx="0" cy="0" r="1" gradientUnits="userSpaceOnUse" gradientTransform="translate(157.762 45.1229) scale(73.7507 73.6036)"><stop stop-color="#87CEEB"></stop><stop offset="1" stop-color="#1E90FF"></stop></radialGradient><radialGradient id="paint24_radial_329_617" cx="0" cy="0" r="1" gradientUnits="userSpaceOnUse" gradientTransform="translate(157.763 45.123) scale(73.7508 73.6037)"><stop stop-color="#87CEEB"></stop><stop offset="1" stop-color="#1E90FF"></stop></radialGradient><radialGradient id="paint25_radial_329_617" cx="0" cy="0" r="1" gradientUnits="userSpaceOnUse" gradientTransform="translate(157.762 45.123) scale(73.7507 73.6037)"><stop stop-color="#87CEEB"></stop><stop offset="1" stop-color="#1E90FF"></stop></radialGradient></defs></svg>